<svg width="74" height="89" viewBox="0 0 74 89" fill="none" xmlns="http://www.w3.org/2000/svg">
<g clip-path="url(#clip0_819_6)">
<path d="M62.9995 50.0343H55.8116V26.1388C55.8116 15.7112 47.3732 7.22699 37.002 7.22699C26.6308 7.22699 18.1884 15.7112 18.1884 26.1388V50.0343H11.0005V26.1388C11.0005 11.7259 22.663 0 36.998 0C51.3329 0 62.9954 11.7259 62.9954 26.1388V50.0343H62.9995Z" fill="#737270" fill-opacity="0.8"/>
<path d="M74 86.198C74 87.7469 72.7537 89 71.2131 89H2.7869C1.24634 89 0 87.7469 0 86.198V41.4966C0 39.9477 1.24634 38.6946 2.7869 38.6946H71.2131C72.7537 38.6946 74 39.9477 74 41.4966V86.198Z" fill="#FFCD07"/>
<path d="M55.8115 38.6946C55.8115 38.6946 61.9819 30.9499 62.7543 22.6218V38.6946H55.8115Z" fill="#5D5A5B" fill-opacity="0.8"/>
<path d="M74.0001 86.198V58.8102C51.4556 77.9849 18.9527 85.1914 0.5354 87.8373C1.04211 88.5399 1.85938 89.0041 2.78699 89.0041H71.2132C72.7537 89 74.0001 87.7469 74.0001 86.198Z" fill="#FBB715" fill-opacity="0.8"/>
<path d="M43.1151 56.2711C43.1151 52.8774 40.3772 50.1246 37.0019 50.1246C33.6265 50.1246 30.8887 52.8774 30.8887 56.2711C30.8887 58.2966 31.8653 60.0838 33.3691 61.2055L31.424 75.1089H42.5879L40.6428 61.2055C42.1384 60.0879 43.1151 58.2966 43.1151 56.2711Z" fill="#737270" fill-opacity="0.8"/>
<path d="M31.416 75.1089C31.416 75.1089 40.1404 71.7522 40.782 62.245L42.5841 75.1089H31.416Z" fill="#5D5A5B" fill-opacity="0.8"/>
</g>
<defs>
<clipPath id="clip0_819_6">
<rect width="74" height="89" fill="white"/>
</clipPath>
</defs>
</svg>
