<svg width="50" height="50" viewBox="0 0 50 50" fill="none" xmlns="http://www.w3.org/2000/svg">
<path d="M1 29.2681C1 29.2681 2.07098 20.4929 11.7827 23.7537C21.4945 27.0168 18.7783 34.6185 18.7783 34.6185L1 29.2681Z" fill="#F5E4CE"/>
<path d="M2.47888 29.7146C2.47888 29.7146 3.88711 24.2161 8.23484 24.7926C8.23484 24.7926 10.9442 25.2484 10.4429 27.723C10.4429 27.723 9.72966 29.088 10.3631 29.7283C10.9966 30.3686 10.2013 31.5808 10.2013 31.5808L10.3403 32.0799L2.47888 29.7146Z" fill="#EA6C7F"/>
<path d="M11.5367 26.0209C11.5367 26.0209 12.4505 25.9935 13.2184 26.447C13.984 26.9027 14.3828 26.766 15.2373 28.0899C16.0895 29.4138 16.6615 29.8878 16.6615 29.8878C17.4317 31.0408 18.154 32.1095 16.9805 34.0555L11.3248 32.3533C11.3248 32.3533 10.9944 31.312 11.3544 30.3959C11.7145 29.4799 11.0058 28.4271 11.0058 28.4271C11.0058 28.4271 11.0628 28.0853 11.5367 26.0209Z" fill="#EA6C7F"/>
<path opacity="0.1" d="M12.5393 26.5244C2.63613 23.1884 1.54236 32.1596 1.54236 32.1596L3.05085 32.6154L5.59842 33.3833L19.6739 37.6285C19.6739 37.6285 22.4425 29.8582 12.5393 26.5244Z" fill="#020202"/>
<path d="M2.12341 32.686C2.12341 32.686 3.1944 23.9107 12.9062 27.1715C22.6179 30.4346 19.9017 38.0363 19.9017 38.0363L2.12341 32.686Z" fill="#F5E4CE"/>
<path d="M3.60223 33.1326C3.60223 33.1326 5.01046 27.6342 9.35819 28.2107C9.35819 28.2107 12.0676 28.6664 11.5662 31.1411C11.5662 31.1411 10.853 32.506 11.4865 33.1463C12.12 33.7866 11.3247 34.9989 11.3247 34.9989L11.4637 35.4979L3.60223 33.1326Z" fill="#EA6C7F"/>
<path d="M12.6601 29.4388C12.6601 29.4388 13.5738 29.4115 14.3418 29.8649C15.1074 30.3207 15.5062 30.184 16.3607 31.5079C17.2129 32.8318 17.7848 33.3058 17.7848 33.3058C18.555 34.4588 19.2774 35.5275 18.1039 37.4735L12.4482 35.7713C12.4482 35.7713 12.1178 34.7299 12.4778 33.8139C12.8378 32.8979 12.1292 31.8451 12.1292 31.8451C12.1292 31.8451 12.1861 31.5033 12.6601 29.4388Z" fill="#EA6C7F"/>
<path opacity="0.8" d="M4.98095 31.5785C4.98095 31.5785 3.73906 33.0711 4.43862 33.2648C5.1359 33.4584 9.54288 34.5613 10.607 34.3904C11.6712 34.2173 8.53114 34.0031 7.77462 33.5564C7.01809 33.1098 5.90609 31.2709 4.98095 31.5785Z" fill="#F4ADB1"/>
<path opacity="0.8" d="M16.4426 32.8204C16.4426 32.8204 16.5155 33.6818 15.9777 34.0532C15.44 34.4246 16.9781 34.0532 16.9781 34.0532C16.9781 34.0532 17.7824 33.8504 17.4133 33.52C17.0442 33.1896 16.4243 31.9272 16.4426 32.8204Z" fill="#F4ADB1"/>
<path d="M6.91779 38.9689L25.9621 34.3534L31.4202 24.4662L41.6792 14.1507L47.8492 17.4426L49 22.4113L32.0775 39.8232C32.0775 39.8232 25.2071 48.8151 13.0036 45.1724L6.91779 38.9689Z" fill="#2A848D"/>
<path d="M31.7321 47.6849C31.7321 47.6849 28.8717 23.2332 47.5881 20.726L49 24.8119L48.8393 29.0517L44.3857 38.1498L36.9616 45.7439L31.7321 47.6849Z" fill="#3E9CA5"/>
<path d="M2.6438 33.0233C2.6438 33.0233 21.7577 40.2912 26.8779 24.8675C31.9982 9.44389 45.3879 12.4063 45.3879 12.4063L47.6849 17.4639C47.6849 17.4639 36.2662 15.9804 30.991 30.4657C25.7158 44.951 9.07661 40.1026 6.24417 39.6104L2.6438 33.0233Z" fill="#17494A"/>
<path d="M37.1163 45.3835C37.1163 45.3835 33.9338 27.2023 49 25L47.3298 33.7186L41.5962 42.4871L37.1163 45.3835Z" fill="#99C7C7"/>
<path d="M25.1644 48.6712C38.3284 48.6712 49 37.9997 49 24.8356C49 11.6716 38.3284 1 25.1644 1C12.0004 1 1.3288 11.6716 1.3288 24.8356C1.3288 37.9997 12.0004 48.6712 25.1644 48.6712Z" stroke="#2E3840" stroke-width="2" stroke-miterlimit="10"/>
<path d="M11.1918 14.1507C12.4628 14.1507 13.4932 13.1203 13.4932 11.8493C13.4932 10.5783 12.4628 9.54794 11.1918 9.54794C9.9208 9.54794 8.89044 10.5783 8.89044 11.8493C8.89044 13.1203 9.9208 14.1507 11.1918 14.1507Z" fill="#F3E3D4"/>
<path d="M16.1233 20.726C17.5759 20.726 18.7534 19.5485 18.7534 18.0959C18.7534 16.6433 17.5759 15.4658 16.1233 15.4658C14.6707 15.4658 13.4932 16.6433 13.4932 18.0959C13.4932 19.5485 14.6707 20.726 16.1233 20.726Z" fill="#F3E3D4"/>
<path d="M34.2055 13.4932C35.658 13.4932 36.8356 12.3156 36.8356 10.863C36.8356 9.41043 35.658 8.23288 34.2055 8.23288C32.7529 8.23288 31.5753 9.41043 31.5753 10.863C31.5753 12.3156 32.7529 13.4932 34.2055 13.4932Z" fill="#F3E3D4"/>
</svg>
