<svg id="Layer_2" data-name="Layer 2" xmlns="http://www.w3.org/2000/svg" viewBox="0 0 575.9 168.03"><defs><style>.cls-1{fill:#15454b;}.cls-2{fill:#e9f6fb;}.cls-3{fill:#94c5cb;}.cls-4{fill:#e75b64;}.cls-5{fill:#ebdac8;}.cls-6{fill:#df7761;}.cls-7{fill:#4c403f;}.cls-8{fill:#e66a79;}.cls-9{fill:#06848f;}.cls-10{fill:#3f98a4;}.cls-11{font-size:108px;fill:#fff;font-family:Helvetica-Bold, Helvetica;font-weight:700;letter-spacing:0.17em;}</style></defs><path class="cls-1" d="M537,49.59S552.88,48,560.67,59.67c4.86,7.3,6.37,5.14,6.81,2.49A9.57,9.57,0,0,0,566.36,56C563.42,50.58,555,40,537,49.59Z"/><path class="cls-1" d="M545.09,36.43s-4.2-10.5-21.49-1S505,65.84,505,65.84a99.39,99.39,0,0,1,6.68-8.15,46.31,46.31,0,0,1,26.58-14.21C541.87,42.86,545.61,41.11,545.09,36.43Z"/><path class="cls-2" d="M5.15,30A17.59,17.59,0,1,0,14.54.27,17.58,17.58,0,0,0,5.15,30Z"/><path class="cls-3" d="M22.6,29.74a17.47,17.47,0,0,1-9.39,4.88A17.59,17.59,0,1,0,14.54.27,17.58,17.58,0,0,1,22.6,29.74Z"/><path class="cls-2" d="M40.45,76.73a8.79,8.79,0,1,0,0-12.44A8.79,8.79,0,0,0,40.45,76.73Z"/><path class="cls-3" d="M49.18,76.59A8.75,8.75,0,0,1,44.48,79a8.8,8.8,0,1,0,.67-17.18,8.8,8.8,0,0,1,4,14.74Z"/><path class="cls-4" d="M561.65,37.36s.66,17.23-25.72,15.34c0,0-1.27-.76-1.14,2.65s-2.08,5.68-5.36,3.35-2.91-8.84-4.87-9.28-1.38-6.88-1.45-7.89-2.71-1-2.33-2.09,3.41-1,3-3.86A10.15,10.15,0,0,0,522,31.05s1.51-2.53,4.42,2a23.47,23.47,0,0,1,3.47,7.57s5.3-1.39,7.57-1.26a13.33,13.33,0,0,1,10.42-5.43C555.11,33.51,561.65,37.36,561.65,37.36Z"/><path class="cls-4" d="M566,24.32s7.28-3.43,9.87-1c0,0,1.52-.31-8.74,8.11Z"/><path class="cls-5" d="M561.74,19.28s11.08,9.09,2.27,16.47c0,0-7.57,7.54-19.31-1.42l2.21-17.8,1.64-1.7,10.6.63Z"/><path class="cls-6" d="M559.41,18.24s.38,3.28,0,4-1-4.11-2.53-3.79-1,4.29-2.14,5.05-.26-5.43-2.91-5.94.13,5.18-1.77,7.33-1.89-1.83-1.89-1.83.63,4.54-2.08,6.56.38,5.92.38,5.92A14.89,14.89,0,0,0,542.18,34a1.39,1.39,0,0,1-1.13-1.59c.22-1.41.42-3.41,0-4-.7-.95-2,.76-2,.76a14,14,0,0,1,2.4-12.25,3.74,3.74,0,0,0-.57-3c-1-1.38,5.24-2.14,5.24-2.14s.95.5,0-.82,2.27-1.45,5.68-1.14,2.84-2.71,2.84-2.71-.69-2.84,1.89-1.64c1.94.9,2.32,4.78,2.39,6.66a.47.47,0,0,0,.8.31,4.81,4.81,0,0,0,1.55-2.62c.12-1.94,3.22.82,3.78,3.22s-.54,7.41-1.72,7.71S561,20,559.41,18.24Z"/><ellipse class="cls-7" cx="556.24" cy="29.39" rx="1.08" ry="2.39" transform="matrix(0.82, -0.57, 0.57, 0.82, 80.9, 319.77)"/><ellipse class="cls-7" cx="563.31" cy="24.58" rx="0.97" ry="2.15" transform="translate(84.86 322.93) rotate(-34.44)"/><circle class="cls-8" cx="562.49" cy="33.04" r="2.33"/><path class="cls-4" d="M554.12,43.25s8.17-1.37,13,1.1-16.08,4.17-16.08,4.17Z"/><path class="cls-2" d="M45,46.84a13.14,13.14,0,1,0,0-18.58A13.1,13.1,0,0,0,45,46.84Z"/><path class="cls-3" d="M58,46.63a13.11,13.11,0,0,1-7,3.65,13.14,13.14,0,1,0,1-25.67,13.15,13.15,0,0,1,6,22Z"/><path class="cls-9" d="M455.38,77s-1,20.5,22.82,23.34,28.36-13.8,28.36-13.8,8.11-40.2,40.23-35.58a18.73,18.73,0,0,1,9.59,4.34c2.4,2.09,4.52,5,3.82,8.62a7.34,7.34,0,0,1-3,4.54c-2,1.45-5.3,3.39-4.18,0,0,0,2.1-6.06-6.78-6.06s-30.22,43.84-30.22,43.84-50.57,22.57-63.89-12.51C452.17,93.72,451.68,81.35,455.38,77Z"/><path class="cls-10" d="M455,82s-2.1,21.44,21.71,26.85,29.52-13.42,29.52-13.42,13.93-36.52,42.56-26.51A12.46,12.46,0,0,1,555,73.63a7.22,7.22,0,0,1,1.14,6.81c-2.22,5.68-7,5.68-7,5.68s-2.84.64-1.24-2.71c0,0,3.21-2.84-1.6-4.39-3.21-1-9.9,3.27-12.41,6.86s-5.49,8.72-8.79,12.77c-7,8.61-10.62,12.57-27,17.44-11,3.27-39.12,9.34-47.75-20.22a23.12,23.12,0,0,1,.18-13.8,11.29,11.29,0,0,1,3.84-5.88S457,74.72,455,82Z"/><path class="cls-2" d="M30.29,50.88a3.51,3.51,0,0,0,1.56.89,3.4,3.4,0,1,0-1.56-.89Z"/><path class="cls-3" d="M33.66,50.82a3.36,3.36,0,0,1-1.81,1,3.4,3.4,0,1,0,.26-6.65,3.34,3.34,0,0,1,1.55.89A3.4,3.4,0,0,1,33.66,50.82Z"/><text class="cls-11" transform="translate(55.47 116.09)">PONYO</text></svg>