<svg xmlns="http://www.w3.org/2000/svg" viewBox="0 0 471.97 270.09"><defs><style>.cls-1{opacity:0.2;}.cls-2{opacity:0.3;}.cls-3{fill:#630e0e;}.cls-4{fill:#ef3927;}.cls-5{opacity:0.55;}.cls-6{fill:#fff;}.cls-7{fill:#f9be25;}</style></defs><g id="Layer_3" data-name="Layer 3"><g class="cls-1"><g class="cls-2"><ellipse class="cls-3" cx="238.66" cy="257.01" rx="97.27" ry="13.08"/></g><ellipse class="cls-4" cx="244.6" cy="238.46" rx="52.44" ry="19.95" transform="translate(-36.73 44.69) rotate(-9.71)"/><g class="cls-5"><path class="cls-6" d="M252.06,257.37c-1.34.27-2.71.52-4.09.76-28.55,4.89-53.2.05-55.06-10.82s19.78-23.62,48.33-28.51c1.38-.23,2.75-.45,4.11-.65-26.5,5.37-46,17.43-44.23,27.76S225.29,261.13,252.06,257.37Z"/></g><g class="cls-2"><path class="cls-3" d="M260.11,235.81C261.33,243,252.3,251,237.8,257h0c.83-.13,1.67-.26,2.51-.41,28.55-4.89,50.18-17.65,48.32-28.51-.8-4.7-5.88-8.27-13.68-10.42q1.07.15,2.1.33c-9.75-1.64-22.35-1.5-35.82.8a130,130,0,0,0-17.88,4.34C243.46,222.57,258.66,227.38,260.11,235.81Z"/></g><path class="cls-3" d="M226.48,262.81a86.62,86.62,0,0,1-16.58-1.46c-11.61-2.28-18.61-7.1-19.72-13.57s3.9-13.34,14.08-19.36c9.41-5.55,22.38-9.94,36.51-12.36s27.81-2.59,38.53-.48c11.61,2.28,18.61,7.1,19.72,13.57h0c1.11,6.47-3.89,13.34-14.08,19.35-9.41,5.56-22.37,9.95-36.5,12.37A132.09,132.09,0,0,1,226.48,262.81Zm36.25-43.15a125.58,125.58,0,0,0-21,1.88c-13.48,2.3-25.77,6.45-34.61,11.67-7.83,4.62-12.11,9.71-11.44,13.63s6.4,7.31,15.32,9.06c10.08,2,23.05,1.8,36.53-.51s25.77-6.45,34.62-11.67c7.83-4.62,12.1-9.72,11.43-13.63s-6.4-7.31-15.32-9.06A81.26,81.26,0,0,0,262.73,219.66Z"/><path class="cls-4" d="M346.78,95c27.93,163.16-218.33,205.31-246.26,42.15C96.29,112.42,148,82.92,216,71.28S342.54,70.26,346.78,95Z"/><g class="cls-5"><path class="cls-6" d="M182.5,160.22a201.83,201.83,0,0,1-27.13-1.73h0l-.57-.09a136.19,136.19,0,0,1-14.59-2.78c-1-.25-2.12-.54-3.18-.84A83,83,0,0,1,126.12,151c-5-2.17-8.72-4.59-11.22-7.18a2.31,2.31,0,1,1,3.33-3.21,31.54,31.54,0,0,0,9.76,6.16,78.57,78.57,0,0,0,10.28,3.62c1,.29,2,.55,3,.79a134.9,134.9,0,0,0,14.18,2.71l.18,0a203.86,203.86,0,0,0,33.24,1.64h.2c4.25-.11,8.6-.34,12.94-.67h.18c1.69-.13,3.39-.28,5.11-.44,4.66-.44,9.53-1,14.49-1.73.72-.09,1.42-.19,2.12-.31,2.45-.37,4.69-.72,6.88-1.1,1.36-.23,2.72-.47,4.06-.72,4-.75,8.07-1.57,12-2.44h0l.49-.11,4.76-1.1,0-.1,2.15-.44c1.11-.27,2.21-.55,3.29-.85,6.12-1.6,12.11-3.4,17.83-5.35,1.31-.45,2.61-.9,3.88-1.36,6.49-2.34,12.68-4.9,18.39-7.61l.69-.34c.88-.42,1.69-.81,2.49-1.21,3.57-1.79,7-3.66,10.15-5.57,2.69-1.62,5.2-3.26,7.44-4.88,11.75-8.41,16.4-15.72,15.79-19.24a2.32,2.32,0,0,1,4.57-.78c1.08,6.31-5.36,15-17.66,23.77-2.34,1.69-4.95,3.41-7.76,5.09-3.26,2-6.78,3.9-10.45,5.74-.82.42-1.67.83-2.54,1.24l-.75.36c-5.83,2.78-12.16,5.4-18.79,7.78-1.29.47-2.62.93-4,1.39-5.83,2-11.92,3.82-18.12,5.44-.89.24-1.79.48-2.71.71l-.7.18-.25.06-.12,0c-2,.5-4,1-6.11,1.45l0,0-.54.1c-4.1.93-8.32,1.79-12.54,2.57l-4.13.73c-2.22.38-4.49.75-6.94,1.11-.74.12-1.48.23-2.21.32-5,.72-9.95,1.31-14.68,1.75-1.76.17-3.51.32-5.23.45h-.19c-4.34.34-8.7.56-13,.68h-.19Q185.82,160.23,182.5,160.22Z"/></g><g class="cls-5"><path class="cls-6" d="M248,237.84c-59.66,11.72-127-15-145.27-90h0A17.18,17.18,0,0,1,113,158.49C134.23,221.78,193.4,245.8,248,237.84Z"/></g><path class="cls-6" d="M346.26,143.14h0c-5.11,21.71-50.5,45.42-108.49,55.35S129.07,201.16,117,182.39h0l-11.47-24.46h0c12.78,19.93,66.61,27.64,128.17,17.1s109.76-35.71,115.19-58.76h0Z"/><g class="cls-2"><path class="cls-3" d="M203.65,237.73c68.73,5.62,143-41.27,139.06-126.33h0c-3.83,5.94-9.7,11.31-15.58,15.72a18.13,18.13,0,0,0-7,11.52c-9.93,59.89-62.29,95.24-116.48,99.09Z"/></g><path class="cls-3" d="M220.84,243.27a132.94,132.94,0,0,1-46.09-8.08c-41.49-15.34-68.82-50-77-97.55-2.26-13.21,9.1-27.68,32-40.74,22.08-12.61,52.52-22.68,85.72-28.36s65.26-6.31,90.28-1.77c25.94,4.71,41.47,14.57,43.73,27.78,8.14,47.57-6.11,89.33-40.14,117.59a136.55,136.55,0,0,1-64.31,29.06A143.12,143.12,0,0,1,220.84,243.27Zm48.22-174A315.52,315.52,0,0,0,216.45,74c-32.58,5.58-62.38,15.42-83.91,27.71-20.42,11.65-31.09,24.4-29.28,35,7.79,45.54,33.87,78.66,73.42,93.28,42.44,15.69,94.35,6.8,129.15-22.11,32.44-26.94,46-66.85,38.22-112.38-1.82-10.59-16.12-19.06-39.25-23.26A202,202,0,0,0,269.06,69.31Z"/><path class="cls-3" d="M181,157.92a203.21,203.21,0,0,1-27.09-1.71h0l-.62-.09a138.93,138.93,0,0,1-14.58-2.79c-1-.25-2.13-.53-3.18-.84a80.91,80.91,0,0,1-10.88-3.83c-4.95-2.18-8.73-4.59-11.23-7.18a2.31,2.31,0,1,1,3.33-3.21,31.36,31.36,0,0,0,9.76,6.15A77.13,77.13,0,0,0,136.74,148c1,.29,2,.56,3,.8a132.92,132.92,0,0,0,14.18,2.7l.18,0a205.3,205.3,0,0,0,33.26,1.64h.18c4.25-.11,8.61-.33,12.94-.67h.18c1.69-.13,3.39-.27,5.11-.44,4.66-.43,9.53-1,14.49-1.72l2.12-.31c2.47-.37,4.71-.73,6.88-1.1l4.07-.73c4-.74,8.08-1.57,12-2.44h0l.46-.1c1.61-.36,3.21-.73,4.77-1.11l0-.17,2.19-.37c1.1-.27,2.18-.55,3.25-.84,6.12-1.61,12.11-3.41,17.83-5.35,1.32-.45,2.61-.9,3.88-1.36,6.49-2.34,12.68-4.9,18.39-7.62l.69-.33c.88-.42,1.7-.82,2.49-1.22,3.57-1.79,7-3.66,10.15-5.56,2.69-1.62,5.2-3.27,7.44-4.89,11.75-8.4,16.4-15.71,15.8-19.23a2.31,2.31,0,1,1,4.56-.78c1.08,6.31-5.36,15-17.66,23.77-2.34,1.69-4.95,3.41-7.76,5.09-3.26,2-6.78,3.9-10.45,5.74-.82.41-1.67.83-2.54,1.23l-.74.37c-5.84,2.77-12.17,5.39-18.8,7.78-1.29.47-2.62.93-4,1.39-5.82,2-11.92,3.81-18.12,5.44l-2.25.59-1.16.3-.24.05-.13,0c-2,.5-4.06,1-6.14,1.45l-.06,0-.51.09c-4.09.92-8.31,1.78-12.53,2.56-1.37.26-2.75.5-4.13.74-2.2.37-4.47.74-6.94,1.11-.74.12-1.48.22-2.21.32-5,.72-9.95,1.31-14.68,1.75-1.76.17-3.51.32-5.23.45h-.19c-4.35.33-8.71.56-13,.67h-.17Q184.29,157.92,181,157.92Z"/><path class="cls-3" d="M181,157.92a202.1,202.1,0,0,1-27.13-1.72h0l-.57-.08a138.64,138.64,0,0,1-14.59-2.79c-1-.25-2.12-.53-3.18-.84a81.41,81.41,0,0,1-10.88-3.83c-5-2.18-8.73-4.59-11.23-7.18a2.31,2.31,0,1,1,3.33-3.21,31.36,31.36,0,0,0,9.76,6.15A77.64,77.64,0,0,0,136.74,148c1,.29,2,.56,3,.8a132.44,132.44,0,0,0,14.18,2.7l.18,0a206.18,206.18,0,0,0,33.24,1.64h.2c4.25-.11,8.61-.33,12.94-.67h.18c1.69-.13,3.39-.27,5.11-.44,4.66-.43,9.53-1,14.49-1.72l2.12-.31c2.45-.37,4.69-.73,6.88-1.1l4.07-.73c4-.74,8.06-1.56,12-2.44h0l.49-.1c1.6-.36,3.2-.73,4.76-1.11l0-.09,2.15-.44c1.11-.28,2.21-.56,3.29-.85,6.12-1.6,12.11-3.4,17.83-5.35,1.32-.45,2.61-.9,3.88-1.36,6.49-2.34,12.68-4.9,18.39-7.62l.69-.33c.88-.42,1.7-.81,2.49-1.22,3.57-1.79,7-3.66,10.15-5.56,2.69-1.62,5.2-3.27,7.44-4.89,11.75-8.4,16.4-15.71,15.8-19.23a2.31,2.31,0,1,1,4.56-.78c1.08,6.31-5.36,15-17.66,23.77-2.34,1.69-4.95,3.4-7.76,5.09-3.26,2-6.78,3.9-10.45,5.74-.82.41-1.67.83-2.54,1.23l-.74.37c-5.84,2.77-12.17,5.39-18.8,7.78-1.29.47-2.62.93-4,1.39-5.82,2-11.92,3.81-18.12,5.44-.88.24-1.79.47-2.71.7l-.7.18a1.83,1.83,0,0,1-.25.06l-.12,0c-2,.49-4,1-6.11,1.44l0,0-.54.1c-4.1.92-8.32,1.78-12.54,2.56-1.37.26-2.74.5-4.13.74-2.22.38-4.49.74-6.94,1.11-.74.12-1.47.22-2.21.32-5,.72-9.95,1.31-14.68,1.75-1.76.17-3.51.32-5.23.45h-.19c-4.34.33-8.7.56-13,.67h-.19Q184.29,157.92,181,157.92Z"/><path class="cls-7" d="M469,54a10.25,10.25,0,0,1-7.82,12.22l-.19,0-38.55,7.69L406.6,77.08l-7.33,1.45L388.93,80.6,225.56,113.21A5.76,5.76,0,0,1,223.09,102l163-39,9.65-2.3L402,59.2l16.62-4,37.88-9A10.27,10.27,0,0,1,469,54Z"/><path class="cls-3" d="M399.65,69.4a20.49,20.49,0,0,1-.38,9.13L388.93,80.6A12.17,12.17,0,0,0,391.3,71a12.58,12.58,0,0,0-5.17-8l9.65-2.3A20.76,20.76,0,0,1,399.65,69.4Z"/><path class="cls-3" d="M422.59,64.45a23.2,23.2,0,0,1-.2,9.47L406.6,77.08,405.67,76a9.55,9.55,0,0,0,3.27-9c-.64-3.44-3.14-6.26-6.9-7.8l16.62-4A23.19,23.19,0,0,1,422.59,64.45Z"/><g class="cls-5"><path class="cls-6" d="M469,54a10.47,10.47,0,0,1,.22,2.88,10.27,10.27,0,0,0-11.41-5.1l-37.88,9-16.61,4L397,66.27l-9.65,2.31-163,39a5.74,5.74,0,0,0-3.55,2.55,5.41,5.41,0,0,0-.61,1.34,5.85,5.85,0,0,1-1.36-2.64,5.77,5.77,0,0,1,4.29-6.83l163-39,9.65-2.3L402,59.2l16.62-4,37.88-9A10.27,10.27,0,0,1,469,54Z"/></g><path class="cls-3" d="M224.45,116.09a8.53,8.53,0,0,1-2-16.83L455.89,43.48A13,13,0,1,1,461.48,69l-235.38,47A8.46,8.46,0,0,1,224.45,116.09ZM458.94,48.67a7.56,7.56,0,0,0-1.76.21L223.74,104.66a3,3,0,0,0,1.27,5.82l235.38-47a7.49,7.49,0,0,0-1.45-14.84Z"/><path class="cls-7" d="M458.46,9.65a10.26,10.26,0,0,1-6.27,13.08l-.19.07L414.67,35.12l-15.29,5.06-7.09,2.34-10,3.31L224.09,98.08a5.76,5.76,0,0,1-3.82-10.86L377.35,28.7l9.3-3.46,6-2.25,16-6L445.19,3.43A10.27,10.27,0,0,1,458.46,9.65Z"/><path class="cls-3" d="M222.31,98.75a6.18,6.18,0,0,1-5.82-4.1,6.15,6.15,0,0,1,3.65-7.79L445.06,3.07a10.66,10.66,0,0,1,13.76,6.45,10.65,10.65,0,0,1-6.51,13.57l-.19.07L224.21,98.44A6,6,0,0,1,222.31,98.75ZM448.78,3.16a10.11,10.11,0,0,0-3.46.62L220.41,87.58a5.37,5.37,0,0,0-3.2,6.82A5.4,5.4,0,0,0,224,97.72L382.15,45.47l69.91-23.1a9.86,9.86,0,0,0,6-12.59h0a9.9,9.9,0,0,0-9.32-6.62Z"/><path class="cls-3" d="M391.55,33.4a20.53,20.53,0,0,1,.74,9.12l-10,3.31A12.12,12.12,0,0,0,383.45,36a12.59,12.59,0,0,0-6.1-7.26l9.3-3.46A20.63,20.63,0,0,1,391.55,33.4Z"/><path class="cls-3" d="M413.72,25.7a23,23,0,0,1,.95,9.42l-15.29,5.06-1.05-.93a9.55,9.55,0,0,0,2.15-9.36c-1.06-3.33-3.88-5.83-7.79-6.9l16-6A23.3,23.3,0,0,1,413.72,25.7Z"/><g class="cls-5"><path class="cls-6" d="M458.46,9.65a9.8,9.8,0,0,1,.56,2.83,10.27,10.27,0,0,0-11.94-3.67l-36.49,13.6-16,6-6,2.25-9.3,3.46L222.17,92.61A5.78,5.78,0,0,0,218.51,97a5.77,5.77,0,0,1,1.76-9.75L377.35,28.7l9.3-3.46,6-2.25,16-6L445.19,3.43A10.27,10.27,0,0,1,458.46,9.65Z"/></g><path class="cls-3" d="M222.31,101.14a8.53,8.53,0,0,1-3-16.52L444.22.83a13,13,0,0,1,16.26,18,12.94,12.94,0,0,1-7.62,6.63L225,100.72A8.73,8.73,0,0,1,222.31,101.14ZM448.78,5.56a7.39,7.39,0,0,0-2.62.47L221.24,89.83a3,3,0,0,0,2,5.61L451.12,20.17A7.49,7.49,0,0,0,452,6.27,7.36,7.36,0,0,0,448.78,5.56Z"/></g></g></svg>